<svg id="visual" viewBox="0 0 900 600" width="900" height="600" xmlns="http://www.w3.org/2000/svg" xmlns:xlink="http://www.w3.org/1999/xlink" version="1.1"><path d="M0 32L21.5 34.7C43 37.3 86 42.7 128.8 45.3C171.7 48 214.3 48 257.2 42.7C300 37.3 343 26.7 385.8 19.5C428.7 12.3 471.3 8.7 514.2 14C557 19.3 600 33.7 642.8 35.8C685.7 38 728.3 28 771.2 27.5C814 27 857 36 878.5 40.5L900 45L900 0L878.5 0C857 0 814 0 771.2 0C728.3 0 685.7 0 642.8 0C600 0 557 0 514.2 0C471.3 0 428.7 0 385.8 0C343 0 300 0 257.2 0C214.3 0 171.7 0 128.8 0C86 0 43 0 21.5 0L0 0Z" fill="#c4e1f3"></path><path d="M0 16L21.5 14C43 12 86 8 128.8 9.8C171.7 11.7 214.3 19.3 257.2 24.8C300 30.3 343 33.7 385.8 29.8C428.7 26 471.3 15 514.2 11.7C557 8.3 600 12.7 642.8 13.3C685.7 14 728.3 11 771.2 11.5C814 12 857 16 878.5 18L900 20L900 0L878.5 0C857 0 814 0 771.2 0C728.3 0 685.7 0 642.8 0C600 0 557 0 514.2 0C471.3 0 428.7 0 385.8 0C343 0 300 0 257.2 0C214.3 0 171.7 0 128.8 0C86 0 43 0 21.5 0L0 0Z" fill="#79abcd"></path><path d="M0 10L21.5 11.3C43 12.7 86 15.3 128.8 17.8C171.7 20.3 214.3 22.7 257.2 21.5C300 20.3 343 15.7 385.8 12.3C428.7 9 471.3 7 514.2 6.8C557 6.7 600 8.3 642.8 9.2C685.7 10 728.3 10 771.2 10.7C814 11.3 857 12.7 878.5 13.3L900 14L900 0L878.5 0C857 0 814 0 771.2 0C728.3 0 685.7 0 642.8 0C600 0 557 0 514.2 0C471.3 0 428.7 0 385.8 0C343 0 300 0 257.2 0C214.3 0 171.7 0 128.8 0C86 0 43 0 21.5 0L0 0Z" fill="#2076a9"></path></svg>