<svg xmlns="http://www.w3.org/2000/svg" xmlns:xlink="http://www.w3.org/1999/xlink" width="315" zoomAndPan="magnify" viewBox="0 0 236.25 64.499998" height="86" preserveAspectRatio="xMidYMid meet" version="1.0"><defs><g/><clipPath id="1aa31a9fa8"><path d="M 7 7 L 67 7 L 67 57 L 7 57 Z M 7 7 " clip-rule="nonzero"/></clipPath><clipPath id="ee17611343"><path d="M 0.542969 14.847656 L 61.390625 0.5 L 72.835938 49.035156 L 11.988281 63.382812 Z M 0.542969 14.847656 " clip-rule="nonzero"/></clipPath><clipPath id="9a30c7462c"><path d="M 0.542969 14.847656 L 61.390625 0.5 L 72.835938 49.035156 L 11.988281 63.382812 Z M 0.542969 14.847656 " clip-rule="nonzero"/></clipPath></defs><g clip-path="url(#1aa31a9fa8)"><g clip-path="url(#ee17611343)"><g clip-path="url(#9a30c7462c)"><path fill="#1b5e89" d="M 41.351562 16.175781 C 39.992188 15.332031 38.210938 15.753906 37.371094 17.113281 L 23.667969 39.273438 C 21.984375 41.988281 18.417969 42.832031 15.699219 41.152344 C 12.976562 39.46875 12.136719 35.902344 13.820312 33.179688 L 27.257812 11.449219 C 24.539062 9.769531 20.96875 10.609375 19.289062 13.328125 L 8.894531 30.136719 C 5.53125 35.574219 7.214844 42.710938 12.652344 46.074219 C 18.09375 49.4375 25.226562 47.757812 28.589844 42.316406 L 42.292969 20.160156 C 43.132812 18.800781 42.710938 17.015625 41.351562 16.175781 Z M 45.921875 8.789062 C 40.480469 5.425781 33.347656 7.109375 29.984375 12.546875 L 16.28125 34.703125 C 15.441406 36.0625 15.863281 37.847656 17.21875 38.6875 C 18.582031 39.53125 20.363281 39.109375 21.203125 37.75 L 34.90625 15.59375 C 36.589844 12.871094 40.15625 12.03125 42.875 13.714844 C 44.234375 14.554688 46.019531 14.132812 46.859375 12.773438 C 47.699219 11.414062 47.277344 9.628906 45.921875 8.789062 Z M 56.125 25.308594 C 54.765625 24.46875 52.980469 24.890625 52.140625 26.25 L 38.4375 48.402344 C 36.757812 51.125 33.1875 51.964844 30.46875 50.285156 C 29.109375 49.445312 27.328125 49.863281 26.484375 51.222656 C 25.644531 52.585938 26.0625 54.367188 27.425781 55.207031 C 32.863281 58.570312 40 56.886719 43.363281 51.449219 L 57.0625 29.292969 C 57.902344 27.933594 57.484375 26.148438 56.125 25.308594 Z M 60.691406 17.925781 C 55.253906 14.5625 48.117188 16.242188 44.753906 21.683594 L 31.050781 43.839844 C 30.210938 45.199219 30.632812 46.980469 31.992188 47.824219 C 33.351562 48.664062 35.136719 48.242188 35.976562 46.882812 L 49.679688 24.726562 C 51.359375 22.007812 54.929688 21.164062 57.644531 22.847656 C 60.367188 24.53125 61.207031 28.097656 59.523438 30.816406 L 46.089844 52.546875 C 48.804688 54.230469 52.375 53.386719 54.054688 50.667969 L 64.449219 33.863281 C 67.8125 28.421875 66.128906 21.285156 60.691406 17.925781 Z M 60.691406 17.925781 " fill-opacity="1" fill-rule="nonzero"/></g></g></g><g fill="#1b5e89" fill-opacity="1"><g transform="translate(72.813619, 44.656427)"><g><path d="M 7.546875 -4.609375 L 13.6875 -4.609375 L 13.6875 0 L 1.984375 0 L 1.984375 -25.671875 L 13.6875 -25.671875 L 13.6875 -21.15625 L 7.546875 -21.15625 L 7.546875 -15.125 L 13.296875 -15.125 L 13.296875 -10.75 L 7.546875 -10.75 Z M 7.546875 -4.609375 "/></g></g></g><g fill="#1b5e89" fill-opacity="1"><g transform="translate(87.736447, 44.656427)"><g><path d="M 16.859375 -25.671875 L 12.78125 -12.859375 L 17.390625 0 L 11.59375 0 L 8.890625 -8.96875 L 6.1875 0 L 0.359375 0 L 4.953125 -12.859375 L 0.953125 -25.671875 L 6.34375 -25.671875 L 8.890625 -17.390625 L 11.4375 -25.671875 Z M 16.859375 -25.671875 "/></g></g></g><g fill="#1b5e89" fill-opacity="1"><g transform="translate(105.635902, 44.656427)"><g><path d="M 17.109375 -20.828125 L 17.109375 -4.84375 C 17.109375 -1.351562 15.46875 0.390625 12.1875 0.390625 L 6.90625 0.390625 C 3.625 0.390625 1.984375 -1.351562 1.984375 -4.84375 L 1.984375 -20.828125 C 1.984375 -24.328125 3.625 -26.078125 6.90625 -26.078125 L 12.1875 -26.078125 C 15.46875 -26.078125 17.109375 -24.328125 17.109375 -20.828125 Z M 11.546875 -4.203125 L 11.546875 -21.515625 C 11.546875 -21.722656 11.472656 -21.90625 11.328125 -22.0625 C 11.179688 -22.21875 11.003906 -22.296875 10.796875 -22.296875 L 8.296875 -22.296875 C 8.085938 -22.296875 7.910156 -22.21875 7.765625 -22.0625 C 7.617188 -21.90625 7.546875 -21.722656 7.546875 -21.515625 L 7.546875 -4.203125 C 7.546875 -3.992188 7.617188 -3.804688 7.765625 -3.640625 C 7.910156 -3.484375 8.085938 -3.40625 8.296875 -3.40625 L 10.796875 -3.40625 C 11.003906 -3.40625 11.179688 -3.484375 11.328125 -3.640625 C 11.472656 -3.804688 11.546875 -3.992188 11.546875 -4.203125 Z M 11.546875 -4.203125 "/></g></g></g><g fill="#1b5e89" fill-opacity="1"><g transform="translate(124.845074, 44.656427)"><g><path d="M 14.53125 -14.046875 C 16.25 -13.441406 17.109375 -12.039062 17.109375 -9.84375 L 17.109375 -5.234375 C 17.109375 -1.742188 15.46875 0 12.1875 0 L 1.984375 0 L 1.984375 -25.671875 L 11.859375 -25.671875 C 15.140625 -25.671875 16.78125 -23.925781 16.78125 -20.4375 L 16.78125 -18.09375 C 16.78125 -15.976562 16.03125 -14.628906 14.53125 -14.046875 Z M 10.484375 -21.90625 L 7.546875 -21.90625 L 7.546875 -15.046875 L 10.484375 -15.046875 C 10.691406 -15.046875 10.867188 -15.125 11.015625 -15.28125 C 11.160156 -15.4375 11.234375 -15.617188 11.234375 -15.828125 L 11.234375 -21.109375 C 11.234375 -21.328125 11.160156 -21.515625 11.015625 -21.671875 C 10.867188 -21.828125 10.691406 -21.90625 10.484375 -21.90625 Z M 11.546875 -4.609375 L 11.546875 -10.359375 C 11.546875 -10.566406 11.472656 -10.75 11.328125 -10.90625 C 11.179688 -11.070312 11.003906 -11.15625 10.796875 -11.15625 L 7.546875 -11.15625 L 7.546875 -3.8125 L 10.796875 -3.8125 C 11.003906 -3.8125 11.179688 -3.890625 11.328125 -4.046875 C 11.472656 -4.203125 11.546875 -4.390625 11.546875 -4.609375 Z M 11.546875 -4.609375 "/></g></g></g><g fill="#1b5e89" fill-opacity="1"><g transform="translate(143.77642, 44.656427)"><g><path d="M 7.546875 -25.671875 L 7.546875 0 L 1.984375 0 L 1.984375 -25.671875 Z M 7.546875 -25.671875 "/></g></g></g><g fill="#1b5e89" fill-opacity="1"><g transform="translate(153.460379, 44.656427)"><g><path d="M 16.703125 0 L 11.15625 0 L 11.15625 -21.3125 C 11.15625 -21.519531 11.082031 -21.703125 10.9375 -21.859375 C 10.789062 -22.023438 10.609375 -22.109375 10.390625 -22.109375 L 8.25 -22.109375 C 8.039062 -22.109375 7.863281 -22.023438 7.71875 -21.859375 C 7.570312 -21.703125 7.5 -21.519531 7.5 -21.3125 L 7.5 0 L 1.9375 0 L 1.9375 -20.828125 C 1.9375 -24.328125 3.578125 -26.078125 6.859375 -26.078125 L 11.78125 -26.078125 C 15.0625 -26.078125 16.703125 -24.328125 16.703125 -20.828125 Z M 16.703125 0 "/></g></g></g><g fill="#1b5e89" fill-opacity="1"><g transform="translate(171.915463, 44.656427)"><g><path d="M 12.1875 -26.078125 C 15.46875 -26.078125 17.109375 -24.328125 17.109375 -20.828125 L 17.109375 0 L 11.546875 0 L 11.546875 -8.609375 L 7.546875 -8.609375 L 7.546875 0 L 1.984375 0 L 1.984375 -20.828125 C 1.984375 -24.328125 3.625 -26.078125 6.90625 -26.078125 Z M 7.546875 -12.890625 L 11.546875 -12.890625 L 11.546875 -21.515625 C 11.546875 -21.722656 11.472656 -21.90625 11.328125 -22.0625 C 11.179688 -22.21875 11.003906 -22.296875 10.796875 -22.296875 L 8.296875 -22.296875 C 8.085938 -22.296875 7.910156 -22.21875 7.765625 -22.0625 C 7.617188 -21.90625 7.546875 -21.722656 7.546875 -21.515625 Z M 7.546875 -12.890625 "/></g></g></g><g fill="#1b5e89" fill-opacity="1"><g transform="translate(191.164324, 44.656427)"><g><path d="M 7.546875 -10.515625 L 7.546875 0 L 1.984375 0 L 1.984375 -25.671875 L 11.859375 -25.671875 C 15.140625 -25.671875 16.78125 -23.925781 16.78125 -20.4375 L 16.78125 -17.46875 C 16.78125 -15.34375 16.03125 -13.992188 14.53125 -13.421875 C 15.851562 -12.941406 16.515625 -11.851562 16.515625 -10.15625 L 16.515625 0 L 10.953125 0 L 10.953125 -9.71875 C 10.953125 -10.25 10.703125 -10.515625 10.203125 -10.515625 Z M 7.546875 -21.90625 L 7.546875 -14.40625 L 10.484375 -14.40625 C 10.691406 -14.40625 10.867188 -14.484375 11.015625 -14.640625 C 11.160156 -14.796875 11.234375 -14.984375 11.234375 -15.203125 L 11.234375 -21.109375 C 11.234375 -21.328125 11.160156 -21.515625 11.015625 -21.671875 C 10.867188 -21.828125 10.691406 -21.90625 10.484375 -21.90625 Z M 7.546875 -21.90625 "/></g></g></g><g fill="#1b5e89" fill-opacity="1"><g transform="translate(209.540041, 44.656427)"><g><path d="M 16.859375 -25.671875 L 11.34375 -9.359375 L 11.34375 0 L 5.796875 0 L 5.796875 -9.359375 L 0.28125 -25.671875 L 5.515625 -25.671875 L 8.578125 -14.96875 L 11.625 -25.671875 Z M 16.859375 -25.671875 "/></g></g></g></svg>